<svg width="833" height="800" xmlns="http://www.w3.org/2000/svg" xmlns:xlink="http://www.w3.org/1999/xlink" overflow="hidden"><defs><filter id="fx0" x="-10%" y="-10%" width="120%" height="120%" filterUnits="userSpaceOnUse" primitiveUnits="userSpaceOnUse"><feComponentTransfer color-interpolation-filters="sRGB"><feFuncR type="discrete" tableValues="0 0"/><feFuncG type="discrete" tableValues="0 0"/><feFuncB type="discrete" tableValues="0 0"/><feFuncA type="linear" slope="0" intercept="0"/></feComponentTransfer><feGaussianBlur stdDeviation="1.77778 1.77778"/></filter><clipPath id="clip1"><path d="M640 341.5C629.783 341.5 621.5 349.783 621.5 360 621.5 370.217 629.783 378.5 640 378.5 650.217 378.5 658.5 370.217 658.5 360 658.5 349.783 650.217 341.5 640 341.5ZM244-46 1077-46 1077 754 244 754Z" fill-rule="evenodd" clip-rule="evenodd"/></clipPath><radialGradient cx="1023938" cy="319088" r="1072504" gradientUnits="userSpaceOnUse" spreadMethod="pad" id="fill2" gradientTransform="matrix(0.000104987 0 0 0.000104987 539 277)"><stop offset="0" stop-color="#F7FAFD"/><stop offset="0.06" stop-color="#F7FAFD"/><stop offset="0.95" stop-color="#FFFFFF" stop-opacity="0"/><stop offset="1" stop-color="#FFFFFF" stop-opacity="0"/></radialGradient></defs><g transform="translate(-244 46)"><path d="M585.5 195.5C591.389 189.567 609.839 177.633 614.288 160.833 618.737 144.033 609.643 120.7 607.746 111.5" stroke="#D9C9BC" stroke-width="1.33333" stroke-miterlimit="8" fill="none" fill-rule="evenodd"/><text font-family="Times New Roman,Times New Roman_MSFontService,sans-serif" font-weight="400" font-size="24" transform="matrix(0.396184 -0.918171 0.918171 0.396184 754.145 106)">cello</text><text font-family="Times New Roman,Times New Roman_MSFontService,sans-serif" font-weight="400" font-size="24" transform="matrix(0.427982 -0.903787 0.903787 0.427982 781.413 121)">accordion</text><text font-family="Times New Roman,Times New Roman_MSFontService,sans-serif" font-weight="400" font-size="24" transform="matrix(0.983541 -0.180684 0.180684 0.983541 918.871 309)">raccoon</text><text font-family="Times New Roman,Times New Roman_MSFontService,sans-serif" font-weight="400" font-size="24" transform="matrix(0.860895 -0.508784 0.508784 0.860895 894.511 242)">dinosaur</text><text font-family="Times New Roman,Times New Roman_MSFontService,sans-serif" font-weight="400" font-size="24" transform="matrix(0.889816 -0.45632 0.45632 0.889816 905.381 263)">leopard</text><text font-family="Times New Roman,Times New Roman_MSFontService,sans-serif" font-weight="400" font-size="24" transform="matrix(0.534557 -0.845133 0.845133 0.534557 813.882 140)">tie</text><text font-family="Times New Roman,Times New Roman_MSFontService,sans-serif" font-weight="400" font-size="24" transform="matrix(0.951541 -0.307522 0.307522 0.951541 912.99 286)">lion</text><text font-family="Times New Roman,Times New Roman_MSFontService,sans-serif" font-weight="400" font-size="24" transform="matrix(0.993754 -0.111596 0.111596 0.993754 923.558 332)">elephant</text><text font-family="Times New Roman,Times New Roman_MSFontService,sans-serif" font-weight="400" font-size="24" transform="matrix(0.618597 -0.785709 0.785709 0.618597 831.553 155)">helmet</text><text font-family="Times New Roman,Times New Roman_MSFontService,sans-serif" font-weight="400" font-size="24" transform="matrix(0.778216 -0.627997 0.627997 0.778216 866.009 201)">cow</text><text font-family="Times New Roman,Times New Roman_MSFontService,sans-serif" font-weight="400" font-size="24" transform="matrix(0.724823 -0.688935 0.688935 0.724823 845.598 170)">sneakers</text><text font-family="Times New Roman,Times New Roman_MSFontService,sans-serif" font-weight="400" font-size="24" transform="matrix(0.817107 -0.576486 0.576486 0.817107 879.989 221)">dog</text><text font-family="Times New Roman,Times New Roman_MSFontService,sans-serif" font-weight="400" font-size="24" transform="matrix(0.941084 0.338172 -0.338172 0.941084 909.017 461)">rhino</text><text font-family="Times New Roman,Times New Roman_MSFontService,sans-serif" font-weight="400" font-size="24" transform="matrix(0.994522 0.104528 -0.104528 0.994522 922.124 412)">turtle</text><text font-family="Times New Roman,Times New Roman_MSFontService,sans-serif" font-weight="400" font-size="24" transform="translate(926.8 364)">medusa</text><text font-family="Times New Roman,Times New Roman_MSFontService,sans-serif" font-weight="400" font-size="24" transform="matrix(0.97437 0.224951 -0.224951 0.97437 918.925 436)">crocodile</text><text font-family="Times New Roman,Times New Roman_MSFontService,sans-serif" font-weight="400" font-size="24" transform="matrix(0.908124 0.418701 -0.418701 0.908124 899.037 485)">seal</text><text font-family="Times New Roman,Times New Roman_MSFontService,sans-serif" font-weight="400" font-size="24" transform="matrix(0.997622 0.0689233 -0.0689233 0.997622 923.97 391)">duck</text><text font-family="Times New Roman,Times New Roman_MSFontService,sans-serif" font-weight="400" font-size="24" transform="matrix(0.866364 0.499414 -0.499414 0.866364 887.251 498)">penguin</text><text font-family="Times New Roman,Times New Roman_MSFontService,sans-serif" font-weight="400" font-size="24" transform="matrix(0.816133 0.577864 -0.577864 0.816133 869.616 527)">car</text><text font-family="Times New Roman,Times New Roman_MSFontService,sans-serif" font-weight="400" font-size="24" transform="matrix(0.643335 0.765585 -0.765585 0.643335 804.585 593)">motorcycle</text><text font-family="Times New Roman,Times New Roman_MSFontService,sans-serif" font-weight="400" font-size="24" transform="matrix(0.526177 0.850375 -0.850375 0.526177 789.712 609)">traffic sign</text><text font-family="Times New Roman,Times New Roman_MSFontService,sans-serif" font-weight="400" font-size="24" transform="matrix(0.716047 0.698052 -0.698052 0.716047 825.167 581)">parking meter</text><text font-family="Times New Roman,Times New Roman_MSFontService,sans-serif" font-weight="400" font-size="24" transform="matrix(0.458991 0.888441 -0.888441 0.458991 745.941 629)">train</text><text font-family="Times New Roman,Times New Roman_MSFontService,sans-serif" font-weight="400" font-size="24" transform="matrix(0.725234 0.688503 -0.688503 0.725234 842.952 563)">bicycle</text><text font-family="Times New Roman,Times New Roman_MSFontService,sans-serif" font-weight="400" font-size="24" transform="matrix(0.311293 0.950314 -0.950314 0.311293 724.124 637)">submarine</text><text font-family="Times New Roman,Times New Roman_MSFontService,sans-serif" font-weight="400" font-size="24" transform="matrix(0.436436 0.899735 -0.899735 0.436436 766.738 621)">stop sign</text><text font-family="Times New Roman,Times New Roman_MSFontService,sans-serif" font-weight="400" font-size="24" transform="matrix(0.775496 0.631353 -0.631353 0.775496 854.742 546)">boat</text><text font-family="Times New Roman,Times New Roman_MSFontService,sans-serif" font-weight="400" font-size="24" transform="matrix(0.203526 0.979069 -0.979069 0.203526 701.897 641)">bus</text><text font-family="Times New Roman,Times New Roman_MSFontService,sans-serif" font-weight="400" font-size="24" transform="matrix(0.121869 -0.992546 0.992546 0.121869 625.818 736)">sandwich</text><text font-family="Times New Roman,Times New Roman_MSFontService,sans-serif" font-weight="400" font-size="24" transform="matrix(-1.83697e-16 -1 1 -1.83697e-16 660.067 697)">pizza</text><text font-family="Times New Roman,Times New Roman_MSFontService,sans-serif" font-weight="400" font-size="24" transform="matrix(-0.0550913 -0.998481 0.998481 -0.0550913 688.577 701)">donut</text><text font-family="Times New Roman,Times New Roman_MSFontService,sans-serif" font-weight="400" font-size="24" transform="matrix(0.5674 -0.823442 0.823442 0.5674 489.159 657)">knife</text><text font-family="Times New Roman,Times New Roman_MSFontService,sans-serif" font-weight="400" font-size="24" transform="matrix(0.365752 -0.930712 0.930712 0.365752 561.446 693)">bottle</text><text font-family="Times New Roman,Times New Roman_MSFontService,sans-serif" font-weight="400" font-size="24" transform="matrix(0.28047 -0.959863 0.959863 0.28047 594.038 691)">bowl</text><text font-family="Times New Roman,Times New Roman_MSFontService,sans-serif" font-weight="400" font-size="24" transform="matrix(0.671229 -0.74125 0.74125 0.671229 423.217 685)">wine glass</text><text font-family="Times New Roman,Times New Roman_MSFontService,sans-serif" font-weight="400" font-size="24" transform="matrix(0.520533 -0.853841 0.853841 0.520533 516.832 659)">cup</text><text font-family="Times New Roman,Times New Roman_MSFontService,sans-serif" font-weight="400" font-size="24" transform="matrix(0.46634 -0.884605 0.884605 0.46634 535.49 685)">spoon</text><text font-family="Times New Roman,Times New Roman_MSFontService,sans-serif" font-weight="400" font-size="24" transform="matrix(0.846789 -0.531929 0.531929 0.846789 342.433 587)">telephone</text><text font-family="Times New Roman,Times New Roman_MSFontService,sans-serif" font-weight="400" font-size="24" transform="matrix(0.824045 -0.566524 0.566524 0.824045 385.381 591)">mouse</text><text font-family="Times New Roman,Times New Roman_MSFontService,sans-serif" font-weight="400" font-size="24" transform="matrix(0.859938 -0.510399 0.510399 0.859938 362.411 549)">drone</text><text font-family="Times New Roman,Times New Roman_MSFontService,sans-serif" font-weight="400" font-size="24" transform="matrix(0.777009 -0.62949 0.62949 0.777009 383.257 628)">keyboard</text><text font-family="Times New Roman,Times New Roman_MSFontService,sans-serif" font-weight="400" font-size="24" transform="matrix(0.751414 -0.659831 0.659831 0.751414 425.135 633)">printer</text><text font-family="Times New Roman,Times New Roman_MSFontService,sans-serif" font-weight="400" font-size="24" transform="matrix(0.962545 -0.271123 0.271123 0.962545 319.636 475)">flower</text><text font-family="Times New Roman,Times New Roman_MSFontService,sans-serif" font-weight="400" font-size="24" transform="matrix(0.986414 -0.164281 0.164281 0.986414 314.212 447)">candle</text><text font-family="Times New Roman,Times New Roman_MSFontService,sans-serif" font-weight="400" font-size="24" transform="translate(335.333 413)">toy</text><text font-family="Times New Roman,Times New Roman_MSFontService,sans-serif" font-weight="400" font-size="24" transform="matrix(0.90523 -0.424923 0.424923 0.90523 337.363 528)">picture</text><text font-family="Times New Roman,Times New Roman_MSFontService,sans-serif" font-weight="400" font-size="24" transform="matrix(0.946202 -0.323578 0.323578 0.946202 333.766 499)">barrel</text><text font-family="Times New Roman,Times New Roman_MSFontService,sans-serif" font-weight="400" font-size="24" transform="matrix(0.999391 0.0348995 -0.0348995 0.999391 333.101 388)">box</text><text font-family="Times New Roman,Times New Roman_MSFontService,sans-serif" font-weight="400" font-size="24" transform="matrix(0.954337 0.298731 -0.298731 0.954337 290.616 273)">umbrella</text><text font-family="Times New Roman,Times New Roman_MSFontService,sans-serif" font-weight="400" font-size="24" transform="matrix(0.924568 0.381018 -0.381018 0.924568 281.027 227)">refrigerator</text><text font-family="Times New Roman,Times New Roman_MSFontService,sans-serif" font-weight="400" font-size="24" transform="matrix(0.999848 0.0174524 -0.0174524 0.999848 306.457 362)">sword</text><text font-family="Times New Roman,Times New Roman_MSFontService,sans-serif" font-weight="400" font-size="24" transform="matrix(0.98258 0.185838 -0.185838 0.98258 308.306 308)">board</text><text font-family="Times New Roman,Times New Roman_MSFontService,sans-serif" font-weight="400" font-size="24" transform="matrix(0.994522 0.104528 -0.104528 0.994522 311.872 335)">statue</text><text font-family="Times New Roman,Times New Roman_MSFontService,sans-serif" font-weight="400" font-size="24" transform="matrix(0.616534 0.787328 -0.787328 0.616534 440.341 85)">frisbee</text><text font-family="Times New Roman,Times New Roman_MSFontService,sans-serif" font-weight="400" font-size="24" transform="matrix(0.638291 0.769796 -0.769796 0.638291 407.86 91)">golf club</text><text font-family="Times New Roman,Times New Roman_MSFontService,sans-serif" font-weight="400" font-size="24" transform="matrix(0.908887 0.417042 -0.417042 0.908887 336.275 223)">bench</text><text font-family="Times New Roman,Times New Roman_MSFontService,sans-serif" font-weight="400" font-size="24" transform="matrix(0.692731 0.721196 -0.721196 0.692731 380.345 107)">surfboard</text><text font-family="Times New Roman,Times New Roman_MSFontService,sans-serif" font-weight="400" font-size="24" transform="matrix(0.861602 0.507584 -0.507584 0.861602 354.342 205)">lamp</text><text font-family="Times New Roman,Times New Roman_MSFontService,sans-serif" font-weight="400" font-size="24" transform="matrix(0.814247 0.580518 -0.580518 0.814247 382.182 164)">chair</text><text font-family="Times New Roman,Times New Roman_MSFontService,sans-serif" font-weight="400" font-size="24" transform="matrix(0.831173 0.556014 -0.556014 0.831173 352.498 176)">cabinet</text><text font-family="Times New Roman,Times New Roman_MSFontService,sans-serif" font-weight="400" font-size="24" transform="matrix(0.156434 -0.987688 0.987688 0.156434 676.733 87)">guitar</text><text font-family="Times New Roman,Times New Roman_MSFontService,sans-serif" font-weight="400" font-size="24" transform="matrix(0.208602 -0.978001 0.978001 0.208602 704.728 91)">piano</text><text font-family="Times New Roman,Times New Roman_MSFontService,sans-serif" font-weight="400" font-size="24" transform="matrix(0.325376 -0.945585 0.945585 0.325376 728.399 98)">drum</text><text font-family="Times New Roman,Times New Roman_MSFontService,sans-serif" font-weight="400" font-size="24" transform="matrix(0.49313 0.869956 -0.869956 0.49313 473.475 76)">tennis</text><text font-family="Times New Roman,Times New Roman_MSFontService,sans-serif" font-weight="400" font-size="24" transform="matrix(-0.0871557 -0.996195 0.996195 -0.0871557 631.304 84)">sports ball</text><text font-family="Times New Roman,Times New Roman_MSFontService,sans-serif" font-weight="400" font-size="24" transform="matrix(0.399772 0.916615 -0.916615 0.399772 480.481 12)">table</text><text font-family="Times New Roman,Times New Roman_MSFontService,sans-serif" font-weight="400" font-size="24" transform="matrix(0.399772 0.916615 -0.916615 0.399772 499.137 55)">-</text><text font-family="Times New Roman,Times New Roman_MSFontService,sans-serif" font-weight="400" font-size="24" transform="matrix(0.399772 0.916615 -0.916615 0.399772 502.336 62)">tennis</text><text font-family="Times New Roman,Times New Roman_MSFontService,sans-serif" font-weight="400" font-size="24" transform="matrix(0.327749 0.944765 -0.944765 0.327749 514.383 7)">snowboard</text><text font-family="Times New Roman,Times New Roman_MSFontService,sans-serif" font-weight="400" font-size="21" transform="matrix(0.258819 0.965926 -0.965926 0.258819 553.5 30)">baseball</text><text font-family="Times New Roman,Times New Roman_MSFontService,sans-serif" font-weight="400" font-size="21" transform="matrix(-0.207912 -0.978148 0.978148 -0.207912 605.688 89)">skateboard</text><path d="M561.5 456.5C535.124 461.202 508.747 465.904 486.414 474.404 464.081 482.904 445.79 495.202 427.5 507.5" stroke="#C9D1D7" stroke-width="1.33333" stroke-miterlimit="8" fill="none" fill-rule="evenodd"/><path d="M561.5 456.5C537.426 466.461 513.352 476.421 493.019 487.588 472.686 498.755 456.093 511.127 439.5 523.5" stroke="#C9D1D7" stroke-width="1.33333" stroke-miterlimit="8" fill="none" fill-rule="evenodd"/><path d="M562.5 456.5C537.237 473.115 511.974 489.731 493.807 503.231 475.641 516.731 464.57 527.115 453.5 537.5" stroke="#C9D1D7" stroke-width="1.33333" stroke-miterlimit="8" fill="none" fill-rule="evenodd"/><path d="M561.5 456.5 495.952 526.467C480.452 542.634 474.476 548.067 468.5 553.5" stroke="#C9D1D7" stroke-width="1.33333" stroke-miterlimit="8" fill="none" fill-rule="evenodd"/><path d="M559.5 456.5C549.183 484.566 538.867 512.633 526.867 531.466 514.867 550.299 501.184 559.9 487.5 569.5" stroke="#C9D1D7" stroke-width="1.33333" stroke-miterlimit="8" fill="none" fill-rule="evenodd"/><path d="M654.5 543.5 655.5 623.5" stroke="#E6E1D7" stroke-width="1.33333" stroke-miterlimit="8" fill="none" fill-rule="evenodd"/><path d="M745.5 510.5 779.5 581.5" stroke="#BCC3CB" stroke-width="1.33333" stroke-miterlimit="8" fill="none" fill-rule="evenodd"/><path d="M745.5 511.5C724.233 524.151 702.967 536.803 695.672 554.303 688.378 571.803 695.055 594.151 701.732 616.5" stroke="#E6E1D7" stroke-width="1.33333" stroke-miterlimit="8" fill="none" fill-rule="evenodd"/><path d="M744.5 512.5C764.191 499.474 783.883 486.449 802.216 485.551 820.549 484.652 837.525 495.881 854.5 507.11" stroke="#BCC3CB" stroke-miterlimit="8" fill="none" fill-rule="evenodd"/><path d="M744.5 512.422C765.448 502.909 786.397 493.396 802.563 495.909 818.73 498.422 830.115 512.961 841.5 527.5" stroke="#BCC3CB" stroke-miterlimit="8" fill="none" fill-rule="evenodd"/><path d="M745.5 512.495C762.735 509.297 779.97 506.099 793.803 511.099 807.637 516.1 818.068 529.3 828.5 542.5" stroke="#BCC3CB" stroke-width="1.33333" stroke-miterlimit="8" fill="none" fill-rule="evenodd"/><path d="M746.5 509.5C759.677 511.626 772.853 513.753 784.02 521.586 795.187 529.419 804.343 542.96 813.5 556.5" stroke="#BCC3CB" stroke-width="1.33333" stroke-miterlimit="8" fill="none" fill-rule="evenodd"/><path d="M744.5 509.5C753.833 513.601 763.167 517.702 771.833 527.702 780.5 537.702 788.5 553.601 796.5 569.5" stroke="#BCC3CB" stroke-width="1.33333" stroke-miterlimit="8" fill="none" fill-rule="evenodd"/><path d="M744.315 511.5C741.617 519.689 738.92 527.877 741.617 541.377 744.315 554.877 752.407 573.689 760.5 592.5" stroke="#BCC3CB" stroke-width="1.33333" stroke-miterlimit="8" fill="none" fill-rule="evenodd"/><path d="M743.5 511.5C733.78 523.167 724.061 534.833 723.524 550.167 722.987 565.5 731.632 584.5 740.278 603.5" stroke="#BCC3CB" stroke-width="1.33333" stroke-miterlimit="8" fill="none" fill-rule="evenodd"/><path d="M743.5 511.5C728.248 525.667 712.996 539.833 709.388 556.167 705.78 572.5 713.816 591 721.852 609.5" stroke="#BCC3CB" stroke-width="1.33333" stroke-miterlimit="8" fill="none" fill-rule="evenodd"/><path d="M653.5 543.5C648.167 546.75 642.833 550 639.5 563 636.167 576 634.833 598.75 633.5 621.5" stroke="#E6E1D7" stroke-width="1.33333" stroke-miterlimit="8" fill="none" fill-rule="evenodd"/><path d="M654.5 542.237C659.333 540.975 664.167 539.712 667.833 553.256 671.5 566.8 674 595.15 676.5 623.5" stroke="#E6E1D7" stroke-width="1.33333" stroke-miterlimit="8" fill="none" fill-rule="evenodd"/><path d="M612.365 463.577C614.62 463.244 616.876 462.911 609.065 487.565 601.254 512.218 583.377 561.859 565.5 611.5" stroke="#D4D0D3" stroke-width="1.33333" stroke-miterlimit="8" fill="none" fill-rule="evenodd"/><path d="M613.824 461.5C618.545 468.5 623.265 475.5 618.545 501.5 613.824 527.5 599.662 572.5 585.5 617.5" stroke="#D4D0D3" stroke-width="1.33333" stroke-miterlimit="8" fill="none" fill-rule="evenodd"/><path d="M615.223 463.231C621.989 461.68 628.755 460.128 627.301 486.506 625.847 512.884 616.174 567.192 606.5 621.5" stroke="#D4D0D3" stroke-width="1.33333" stroke-miterlimit="8" fill="none" fill-rule="evenodd"/><path d="M611.5 463.53C606.627 453.868 601.753 444.206 584.253 464.201 566.753 484.196 536.627 533.848 506.5 583.5" stroke="#D4D0D3" stroke-width="1.33333" stroke-miterlimit="8" fill="none" fill-rule="evenodd"/><path d="M609.5 463.522C608.449 455.024 607.397 446.525 592.897 468.188 578.397 489.851 550.448 541.676 522.5 593.5" stroke="#D4D0D3" stroke-width="1.33333" stroke-miterlimit="8" fill="none" fill-rule="evenodd"/><path d="M612.5 461.5C607.167 465.072 601.833 468.645 590.5 492.311 579.167 515.978 561.833 559.739 544.5 603.5" stroke="#D4D0D3" stroke-width="1.33333" stroke-miterlimit="8" fill="none" fill-rule="evenodd"/><path d="M856.5 223C856.5 217.753 860.529 213.5 865.5 213.5 870.471 213.5 874.5 217.753 874.5 223 874.5 228.247 870.471 232.5 865.5 232.5 860.529 232.5 856.5 228.247 856.5 223Z" stroke="#849B80" stroke-width="1.33333" stroke-miterlimit="8" fill="#B6C4B4" fill-rule="evenodd"/><path d="M893.5 308.5C893.5 303.53 897.529 299.5 902.5 299.5 907.471 299.5 911.5 303.53 911.5 308.5 911.5 313.471 907.471 317.5 902.5 317.5 897.529 317.5 893.5 313.471 893.5 308.5Z" stroke="#849B80" stroke-width="1.33333" stroke-miterlimit="8" fill="#B6C4B4" fill-rule="evenodd"/><path d="M886.5 286.5C886.5 281.53 890.529 277.5 895.5 277.5 900.471 277.5 904.5 281.53 904.5 286.5 904.5 291.471 900.471 295.5 895.5 295.5 890.529 295.5 886.5 291.471 886.5 286.5Z" stroke="#849B80" stroke-width="1.33333" stroke-miterlimit="8" fill="#B6C4B4" fill-rule="evenodd"/><path d="M877.5 262C877.5 256.753 881.529 252.5 886.5 252.5 891.471 252.5 895.5 256.753 895.5 262 895.5 267.247 891.471 271.5 886.5 271.5 881.529 271.5 877.5 267.247 877.5 262Z" stroke="#849B80" stroke-width="1.33333" stroke-miterlimit="8" fill="#B6C4B4" fill-rule="evenodd"/><path d="M867.5 242.5C867.5 237.529 871.529 233.5 876.5 233.5 881.471 233.5 885.5 237.529 885.5 242.5 885.5 247.471 881.471 251.5 876.5 251.5 871.529 251.5 867.5 247.471 867.5 242.5Z" stroke="#849B80" stroke-width="1.33333" stroke-miterlimit="8" fill="#B6C4B4" fill-rule="evenodd"/><path d="M760.5 135C760.5 129.753 764.529 125.5 769.5 125.5 774.471 125.5 778.5 129.753 778.5 135 778.5 140.247 774.471 144.5 769.5 144.5 764.529 144.5 760.5 140.247 760.5 135Z" stroke="#666664" stroke-width="1.33333" stroke-miterlimit="8" fill="#979795" fill-rule="evenodd"/><path d="M842.5 203C842.5 197.753 846.529 193.5 851.5 193.5 856.471 193.5 860.5 197.753 860.5 203 860.5 208.247 856.471 212.5 851.5 212.5 846.529 212.5 842.5 208.247 842.5 203Z" stroke="#849B80" stroke-width="1.33333" stroke-miterlimit="8" fill="#B6C4B4" fill-rule="evenodd"/><path d="M821.5 181.5C821.5 176.529 825.529 172.5 830.5 172.5 835.471 172.5 839.5 176.529 839.5 181.5 839.5 186.471 835.471 190.5 830.5 190.5 825.529 190.5 821.5 186.471 821.5 181.5Z" stroke="#777777" stroke-width="1.33333" stroke-miterlimit="8" fill="#C0C0C0" fill-rule="evenodd" fill-opacity="0.501961"/><path d="M804.5 163.5C804.5 158.529 808.529 154.5 813.5 154.5 818.471 154.5 822.5 158.529 822.5 163.5 822.5 168.471 818.471 172.5 813.5 172.5 808.529 172.5 804.5 168.471 804.5 163.5Z" stroke="#777777" stroke-width="1.33333" stroke-miterlimit="8" fill="#C0C0C0" fill-rule="evenodd" fill-opacity="0.501961"/><path d="M783.5 148.5C783.5 143.529 787.529 139.5 792.5 139.5 797.471 139.5 801.5 143.529 801.5 148.5 801.5 153.471 797.471 157.5 792.5 157.5 787.529 157.5 783.5 153.471 783.5 148.5Z" stroke="#777777" stroke-width="1.33333" stroke-miterlimit="8" fill="#C0C0C0" fill-rule="evenodd" fill-opacity="0.501961"/><path d="M736.5 123.5C736.5 118.529 740.529 114.5 745.5 114.5 750.471 114.5 754.5 118.529 754.5 123.5 754.5 128.471 750.471 132.5 745.5 132.5 740.529 132.5 736.5 128.471 736.5 123.5Z" stroke="#666664" stroke-width="1.33333" stroke-miterlimit="8" fill="#979795" fill-rule="evenodd"/><path d="M714.5 114.5C714.5 109.529 718.529 105.5 723.5 105.5 728.471 105.5 732.5 109.529 732.5 114.5 732.5 119.471 728.471 123.5 723.5 123.5 718.529 123.5 714.5 119.471 714.5 114.5Z" stroke="#666664" stroke-width="1.33333" stroke-miterlimit="8" fill="#979795" fill-rule="evenodd"/><path d="M897.5 328.5C897.5 323.53 901.529 319.5 906.5 319.5 911.471 319.5 915.5 323.53 915.5 328.5 915.5 333.471 911.471 337.5 906.5 337.5 901.529 337.5 897.5 333.471 897.5 328.5Z" stroke="#849B80" stroke-width="1.33333" stroke-miterlimit="8" fill="#B6C4B4" fill-rule="evenodd"/><path d="M854.5 513.5C854.5 508.53 858.529 504.5 863.5 504.5 868.471 504.5 872.5 508.53 872.5 513.5 872.5 518.471 868.471 522.5 863.5 522.5 858.529 522.5 854.5 518.471 854.5 513.5Z" stroke="#596671" stroke-width="1.33333" stroke-miterlimit="8" fill="#798898" fill-rule="evenodd" fill-opacity="0.501961"/><path d="M826.5 550.5C826.5 545.529 830.529 541.5 835.5 541.5 840.471 541.5 844.5 545.529 844.5 550.5 844.5 555.471 840.471 559.5 835.5 559.5 830.529 559.5 826.5 555.471 826.5 550.5Z" stroke="#596671" stroke-width="1.33333" stroke-miterlimit="8" fill="#798898" fill-rule="evenodd" fill-opacity="0.501961"/><path d="M776.5 592.5C776.5 587.529 780.529 583.5 785.5 583.5 790.471 583.5 794.5 587.529 794.5 592.5 794.5 597.471 790.471 601.5 785.5 601.5 780.529 601.5 776.5 597.471 776.5 592.5Z" stroke="#596671" stroke-width="1.33333" stroke-miterlimit="8" fill="#798898" fill-rule="evenodd" fill-opacity="0.501961"/><path d="M840.5 533.5C840.5 528.529 844.529 524.5 849.5 524.5 854.471 524.5 858.5 528.529 858.5 533.5 858.5 538.471 854.471 542.5 849.5 542.5 844.529 542.5 840.5 538.471 840.5 533.5Z" stroke="#596671" stroke-width="1.33333" stroke-miterlimit="8" fill="#798898" fill-rule="evenodd" fill-opacity="0.501961"/><path d="M793.5 579.5C793.5 574.529 797.529 570.5 802.5 570.5 807.471 570.5 811.5 574.529 811.5 579.5 811.5 584.471 807.471 588.5 802.5 588.5 797.529 588.5 793.5 584.471 793.5 579.5Z" stroke="#596671" stroke-width="1.33333" stroke-miterlimit="8" fill="#798898" fill-rule="evenodd" fill-opacity="0.501961"/><path d="M716.5 620.5C716.5 615.529 720.529 611.5 725.5 611.5 730.471 611.5 734.5 615.529 734.5 620.5 734.5 625.471 730.471 629.5 725.5 629.5 720.529 629.5 716.5 625.471 716.5 620.5Z" stroke="#596671" stroke-width="1.33333" stroke-miterlimit="8" fill="#798898" fill-rule="evenodd" fill-opacity="0.501961"/><path d="M810.5 565.5C810.5 560.529 814.529 556.5 819.5 556.5 824.471 556.5 828.5 560.529 828.5 565.5 828.5 570.471 824.471 574.5 819.5 574.5 814.529 574.5 810.5 570.471 810.5 565.5Z" stroke="#596671" stroke-width="1.33333" stroke-miterlimit="8" fill="#798898" fill-rule="evenodd" fill-opacity="0.501961"/><path d="M736.5 612.5C736.5 607.529 740.529 603.5 745.5 603.5 750.471 603.5 754.5 607.529 754.5 612.5 754.5 617.471 750.471 621.5 745.5 621.5 740.529 621.5 736.5 617.471 736.5 612.5Z" stroke="#596671" stroke-width="1.33333" stroke-miterlimit="8" fill="#798898" fill-rule="evenodd" fill-opacity="0.501961"/><path d="M645.5 632.5C645.5 627.529 649.529 623.5 654.5 623.5 659.471 623.5 663.5 627.529 663.5 632.5 663.5 637.471 659.471 641.5 654.5 641.5 649.529 641.5 645.5 637.471 645.5 632.5Z" stroke="#AA9776" stroke-width="1.33333" stroke-miterlimit="8" fill="#CEC3AF" fill-rule="evenodd" fill-opacity="0.501961"/><path d="M757.5 602.5C757.5 597.529 761.529 593.5 766.5 593.5 771.471 593.5 775.5 597.529 775.5 602.5 775.5 607.471 771.471 611.5 766.5 611.5 761.529 611.5 757.5 607.471 757.5 602.5Z" stroke="#596671" stroke-width="1.33333" stroke-miterlimit="8" fill="#798898" fill-rule="evenodd" fill-opacity="0.501961"/><path d="M695.5 626.5C695.5 621.529 699.529 617.5 704.5 617.5 709.471 617.5 713.5 621.529 713.5 626.5 713.5 631.471 709.471 635.5 704.5 635.5 699.529 635.5 695.5 631.471 695.5 626.5Z" stroke="#596671" stroke-width="1.33333" stroke-miterlimit="8" fill="#798898" fill-rule="evenodd" fill-opacity="0.501961"/><path d="M621.5 632.5C621.5 627.529 625.529 623.5 630.5 623.5 635.471 623.5 639.5 627.529 639.5 632.5 639.5 637.471 635.471 641.5 630.5 641.5 625.529 641.5 621.5 637.471 621.5 632.5Z" stroke="#AA9776" stroke-width="1.33333" stroke-miterlimit="8" fill="#CEC3AF" fill-rule="evenodd" fill-opacity="0.501961"/><path d="M667.5 634C667.5 628.753 671.753 624.5 677 624.5 682.247 624.5 686.5 628.753 686.5 634 686.5 639.247 682.247 643.5 677 643.5 671.753 643.5 667.5 639.247 667.5 634Z" stroke="#AA9776" stroke-width="1.33333" stroke-miterlimit="8" fill="#CEC3AF" fill-rule="evenodd" fill-opacity="0.501961"/><path d="M491.5 590.5C491.5 585.529 495.53 581.5 500.5 581.5 505.471 581.5 509.5 585.529 509.5 590.5 509.5 595.471 505.471 599.5 500.5 599.5 495.53 599.5 491.5 595.471 491.5 590.5Z" stroke="#827980" stroke-width="1.33333" stroke-miterlimit="8" fill="#A79FA6" fill-rule="evenodd" fill-opacity="0.490196"/><path d="M530.5 611.5C530.5 606.529 534.753 602.5 540 602.5 545.247 602.5 549.5 606.529 549.5 611.5 549.5 616.471 545.247 620.5 540 620.5 534.753 620.5 530.5 616.471 530.5 611.5Z" stroke="#827980" stroke-width="1.33333" stroke-miterlimit="8" fill="#A79FA6" fill-rule="evenodd" fill-opacity="0.490196"/><path d="M594.5 629.5C594.5 624.529 598.529 620.5 603.5 620.5 608.471 620.5 612.5 624.529 612.5 629.5 612.5 634.471 608.471 638.5 603.5 638.5 598.529 638.5 594.5 634.471 594.5 629.5Z" stroke="#827980" stroke-width="1.33333" stroke-miterlimit="8" fill="#A79FA6" fill-rule="evenodd" fill-opacity="0.490196"/><path d="M510.5 601.5C510.5 596.529 514.529 592.5 519.5 592.5 524.471 592.5 528.5 596.529 528.5 601.5 528.5 606.471 524.471 610.5 519.5 610.5 514.529 610.5 510.5 606.471 510.5 601.5Z" stroke="#827980" stroke-width="1.33333" stroke-miterlimit="8" fill="#A79FA6" fill-rule="evenodd" fill-opacity="0.490196"/><path d="M551.5 619.5C551.5 614.529 555.753 610.5 561 610.5 566.247 610.5 570.5 614.529 570.5 619.5 570.5 624.471 566.247 628.5 561 628.5 555.753 628.5 551.5 624.471 551.5 619.5Z" stroke="#827980" stroke-width="1.33333" stroke-miterlimit="8" fill="#A79FA6" fill-rule="evenodd" fill-opacity="0.490196"/><path d="M573.5 625.5C573.5 620.529 577.529 616.5 582.5 616.5 587.471 616.5 591.5 620.529 591.5 625.5 591.5 630.471 587.471 634.5 582.5 634.5 577.529 634.5 573.5 630.471 573.5 625.5Z" stroke="#827980" stroke-width="1.33333" stroke-miterlimit="8" fill="#A79FA6" fill-rule="evenodd" fill-opacity="0.490196"/><path d="M412.5 510.5C412.5 505.53 416.53 501.5 421.5 501.5 426.471 501.5 430.5 505.53 430.5 510.5 430.5 515.471 426.471 519.5 421.5 519.5 416.53 519.5 412.5 515.471 412.5 510.5Z" stroke="#677C8B" stroke-miterlimit="8" fill="#93A3AF" fill-rule="evenodd" fill-opacity="0.501961"/><path d="M423.5 528.5C423.5 523.529 427.753 519.5 433 519.5 438.247 519.5 442.5 523.529 442.5 528.5 442.5 533.471 438.247 537.5 433 537.5 427.753 537.5 423.5 533.471 423.5 528.5Z" stroke="#677C8B" stroke-miterlimit="8" fill="#93A3AF" fill-rule="evenodd" fill-opacity="0.501961"/><path d="M438.5 544.5C438.5 539.529 442.53 535.5 447.5 535.5 452.471 535.5 456.5 539.529 456.5 544.5 456.5 549.471 452.471 553.5 447.5 553.5 442.53 553.5 438.5 549.471 438.5 544.5Z" stroke="#677C8B" stroke-miterlimit="8" fill="#93A3AF" fill-rule="evenodd" fill-opacity="0.501961"/><path d="M453.5 561.5C453.5 556.529 457.53 552.5 462.5 552.5 467.471 552.5 471.5 556.529 471.5 561.5 471.5 566.471 467.471 570.5 462.5 570.5 457.53 570.5 453.5 566.471 453.5 561.5Z" stroke="#677C8B" stroke-miterlimit="8" fill="#93A3AF" fill-rule="evenodd" fill-opacity="0.501961"/><path d="M471.5 576.5C471.5 571.529 475.53 567.5 480.5 567.5 485.471 567.5 489.5 571.529 489.5 576.5 489.5 581.471 485.471 585.5 480.5 585.5 475.53 585.5 471.5 581.471 471.5 576.5Z" stroke="#677C8B" stroke-miterlimit="8" fill="#93A3AF" fill-rule="evenodd" fill-opacity="0.501961"/><path d="M372.5 407.5C372.5 402.53 376.53 398.5 381.5 398.5 386.471 398.5 390.5 402.53 390.5 407.5 390.5 412.471 386.471 416.5 381.5 416.5 376.53 416.5 372.5 412.471 372.5 407.5Z" stroke="#C0B0A8" stroke-width="1.33333" stroke-miterlimit="8" fill="#F5F5F5" fill-rule="evenodd" fill-opacity="0.501961"/><path d="M383.5 450.5C383.5 445.53 387.53 441.5 392.5 441.5 397.471 441.5 401.5 445.53 401.5 450.5 401.5 455.471 397.471 459.5 392.5 459.5 387.53 459.5 383.5 455.471 383.5 450.5Z" stroke="#C0B0A8" stroke-width="1.33333" stroke-miterlimit="8" fill="#F5F5F5" fill-rule="evenodd" fill-opacity="0.501961"/><path d="M390.5 469.5C390.5 464.53 394.53 460.5 399.5 460.5 404.471 460.5 408.5 464.53 408.5 469.5 408.5 474.471 404.471 478.5 399.5 478.5 394.53 478.5 390.5 474.471 390.5 469.5Z" stroke="#C0B0A8" stroke-width="1.33333" stroke-miterlimit="8" fill="#F5F5F5" fill-rule="evenodd" fill-opacity="0.501961"/><path d="M378.5 429.5C378.5 424.53 382.53 420.5 387.5 420.5 392.471 420.5 396.5 424.53 396.5 429.5 396.5 434.471 392.471 438.5 387.5 438.5 382.53 438.5 378.5 434.471 378.5 429.5Z" stroke="#C0B0A8" stroke-width="1.33333" stroke-miterlimit="8" fill="#F5F5F5" fill-rule="evenodd" fill-opacity="0.501961"/><path d="M370.5 381.5C370.5 376.53 374.53 372.5 379.5 372.5 384.471 372.5 388.5 376.53 388.5 381.5 388.5 386.471 384.471 390.5 379.5 390.5 374.53 390.5 370.5 386.471 370.5 381.5Z" stroke="#CFC3BD" stroke-width="1.33333" stroke-miterlimit="8" fill="#F5F5F5" fill-rule="evenodd" fill-opacity="0.470588"/><path d="M399.5 489.5C399.5 484.53 403.53 480.5 408.5 480.5 413.471 480.5 417.5 484.53 417.5 489.5 417.5 494.471 413.471 498.5 408.5 498.5 403.53 498.5 399.5 494.471 399.5 489.5Z" stroke="#C0B0A8" stroke-width="1.33333" stroke-miterlimit="8" fill="#F5F5F5" fill-rule="evenodd" fill-opacity="0.501961"/><path d="M389.5 270.5C389.5 265.53 393.53 261.5 398.5 261.5 403.471 261.5 407.5 265.53 407.5 270.5 407.5 275.471 403.471 279.5 398.5 279.5 393.53 279.5 389.5 275.471 389.5 270.5Z" stroke="#868F9E" stroke-width="1.33333" stroke-miterlimit="8" fill="#BFC4CC" fill-rule="evenodd"/><path d="M375.5 317.5C375.5 312.53 379.53 308.5 384.5 308.5 389.471 308.5 393.5 312.53 393.5 317.5 393.5 322.471 389.471 326.5 384.5 326.5 379.53 326.5 375.5 322.471 375.5 317.5Z" stroke="#CFC3BD" stroke-width="1.33333" stroke-miterlimit="8" fill="#F5F5F5" fill-rule="evenodd" fill-opacity="0.470588"/><path d="M380.5 295.5C380.5 290.53 384.53 286.5 389.5 286.5 394.471 286.5 398.5 290.53 398.5 295.5 398.5 300.471 394.471 304.5 389.5 304.5 384.53 304.5 380.5 300.471 380.5 295.5Z" stroke="#CFC3BD" stroke-width="1.33333" stroke-miterlimit="8" fill="#F5F5F5" fill-rule="evenodd" fill-opacity="0.470588"/><path d="M372.5 338C372.5 332.753 376.53 328.5 381.5 328.5 386.471 328.5 390.5 332.753 390.5 338 390.5 343.247 386.471 347.5 381.5 347.5 376.53 347.5 372.5 343.247 372.5 338Z" stroke="#CFC3BD" stroke-width="1.33333" stroke-miterlimit="8" fill="#F5F5F5" fill-rule="evenodd" fill-opacity="0.470588"/><path d="M370.5 359.5C370.5 354.53 374.53 350.5 379.5 350.5 384.471 350.5 388.5 354.53 388.5 359.5 388.5 364.471 384.471 368.5 379.5 368.5 374.53 368.5 370.5 364.471 370.5 359.5Z" stroke="#CFC3BD" stroke-width="1.33333" stroke-miterlimit="8" fill="#F5F5F5" fill-rule="evenodd" fill-opacity="0.470588"/><path d="M406.5 234.5C406.5 229.529 410.753 225.5 416 225.5 421.247 225.5 425.5 229.529 425.5 234.5 425.5 239.471 421.247 243.5 416 243.5 410.753 243.5 406.5 239.471 406.5 234.5Z" stroke="#868F9E" stroke-width="1.33333" stroke-miterlimit="8" fill="#BFC4CC" fill-rule="evenodd"/><path d="M397.5 251.5C397.5 246.529 401.53 242.5 406.5 242.5 411.471 242.5 415.5 246.529 415.5 251.5 415.5 256.471 411.471 260.5 406.5 260.5 401.53 260.5 397.5 256.471 397.5 251.5Z" stroke="#868F9E" stroke-width="1.33333" stroke-miterlimit="8" fill="#BFC4CC" fill-rule="evenodd"/><path d="M451.5 176.5C451.5 171.529 455.753 167.5 461 167.5 466.247 167.5 470.5 171.529 470.5 176.5 470.5 181.471 466.247 185.5 461 185.5 455.753 185.5 451.5 181.471 451.5 176.5Z" stroke="#7E5F46" stroke-width="1.33333" stroke-miterlimit="8" fill="#B28F76" fill-rule="evenodd" fill-opacity="0.501961"/><path d="M430.5 199.5C430.5 194.529 434.53 190.5 439.5 190.5 444.471 190.5 448.5 194.529 448.5 199.5 448.5 204.471 444.471 208.5 439.5 208.5 434.53 208.5 430.5 204.471 430.5 199.5Z" stroke="#868F9E" stroke-width="1.33333" stroke-miterlimit="8" fill="#BFC4CC" fill-rule="evenodd"/><path d="M485.5 149.5C485.5 144.529 489.53 140.5 494.5 140.5 499.471 140.5 503.5 144.529 503.5 149.5 503.5 154.471 499.471 158.5 494.5 158.5 489.53 158.5 485.5 154.471 485.5 149.5Z" stroke="#7E5F46" stroke-width="1.33333" stroke-miterlimit="8" fill="#B28F76" fill-rule="evenodd" fill-opacity="0.501961"/><path d="M468.5 162.5C468.5 157.529 472.53 153.5 477.5 153.5 482.471 153.5 486.5 157.529 486.5 162.5 486.5 167.471 482.471 171.5 477.5 171.5 472.53 171.5 468.5 167.471 468.5 162.5Z" stroke="#7E5F46" stroke-width="1.33333" stroke-miterlimit="8" fill="#B28F76" fill-rule="evenodd" fill-opacity="0.501961"/><path d="M417.5 216.5C417.5 211.529 421.53 207.5 426.5 207.5 431.471 207.5 435.5 211.529 435.5 216.5 435.5 221.471 431.471 225.5 426.5 225.5 421.53 225.5 417.5 221.471 417.5 216.5Z" stroke="#868F9E" stroke-width="1.33333" stroke-miterlimit="8" fill="#BFC4CC" fill-rule="evenodd"/><path d="M690.5 108C690.5 102.753 694.529 98.5001 699.5 98.5001 704.471 98.5001 708.5 102.753 708.5 108 708.5 113.247 704.471 117.5 699.5 117.5 694.529 117.5 690.5 113.247 690.5 108Z" stroke="#666664" stroke-width="1.33333" stroke-miterlimit="8" fill="#979795" fill-rule="evenodd"/><path d="M508.5 135.5C508.5 130.529 512.529 126.5 517.5 126.5 522.471 126.5 526.5 130.529 526.5 135.5 526.5 140.471 522.471 144.5 517.5 144.5 512.529 144.5 508.5 140.471 508.5 135.5Z" stroke="#7E5F46" stroke-width="1.33333" stroke-miterlimit="8" fill="#B28F76" fill-rule="evenodd" fill-opacity="0.501961"/><path d="M665.5 103.5C665.5 98.5295 669.753 94.5001 675 94.5001 680.247 94.5001 684.5 98.5295 684.5 103.5 684.5 108.471 680.247 112.5 675 112.5 669.753 112.5 665.5 108.471 665.5 103.5Z" stroke="#666664" stroke-width="1.33333" stroke-miterlimit="8" fill="#979795" fill-rule="evenodd"/><path d="M595.5 106.5C595.5 101.529 599.529 97.5001 604.5 97.5001 609.471 97.5001 613.5 101.529 613.5 106.5 613.5 111.471 609.471 115.5 604.5 115.5 599.529 115.5 595.5 111.471 595.5 106.5Z" stroke="#7E5F46" stroke-width="1.33333" stroke-miterlimit="8" fill="#B28F76" fill-rule="evenodd" fill-opacity="0.501961"/><path d="M528.5 124.5C528.5 119.529 532.753 115.5 538 115.5 543.247 115.5 547.5 119.529 547.5 124.5 547.5 129.471 543.247 133.5 538 133.5 532.753 133.5 528.5 129.471 528.5 124.5Z" stroke="#7E5F46" stroke-width="1.33333" stroke-miterlimit="8" fill="#B28F76" fill-rule="evenodd" fill-opacity="0.501961"/><path d="M573.5 110.5C573.5 105.529 577.529 101.5 582.5 101.5 587.471 101.5 591.5 105.529 591.5 110.5 591.5 115.471 587.471 119.5 582.5 119.5 577.529 119.5 573.5 115.471 573.5 110.5Z" stroke="#7E5F46" stroke-width="1.33333" stroke-miterlimit="8" fill="#B28F76" fill-rule="evenodd" fill-opacity="0.501961"/><path d="M552.5 116.5C552.5 111.529 556.529 107.5 561.5 107.5 566.471 107.5 570.5 111.529 570.5 116.5 570.5 121.471 566.471 125.5 561.5 125.5 556.529 125.5 552.5 121.471 552.5 116.5Z" stroke="#7E5F46" stroke-width="1.33333" stroke-miterlimit="8" fill="#B28F76" fill-rule="evenodd" fill-opacity="0.501961"/><path d="M605.5 451.5C605.5 444.873 611.096 439.5 618 439.5 624.904 439.5 630.5 444.873 630.5 451.5 630.5 458.127 624.904 463.5 618 463.5 611.096 463.5 605.5 458.127 605.5 451.5Z" stroke="#7D737C" stroke-miterlimit="8" fill="#A79FA6" fill-rule="evenodd"/><path d="M892.5 422.5C892.5 417.53 896.753 413.5 902 413.5 907.247 413.5 911.5 417.53 911.5 422.5 911.5 427.471 907.247 431.5 902 431.5 896.753 431.5 892.5 427.471 892.5 422.5Z" stroke="#676D5F" stroke-width="1.33333" stroke-miterlimit="8" fill="#B3BEB5" fill-rule="evenodd"/><path d="M895.5 401.5C895.5 396.53 899.753 392.5 905 392.5 910.247 392.5 914.5 396.53 914.5 401.5 914.5 406.471 910.247 410.5 905 410.5 899.753 410.5 895.5 406.471 895.5 401.5Z" stroke="#676D5F" stroke-width="1.33333" stroke-miterlimit="8" fill="#B3BEB5" fill-rule="evenodd"/><path d="M898.5 380.5C898.5 375.53 902.529 371.5 907.5 371.5 912.471 371.5 916.5 375.53 916.5 380.5 916.5 385.471 912.471 389.5 907.5 389.5 902.529 389.5 898.5 385.471 898.5 380.5Z" stroke="#676D5F" stroke-width="1.33333" stroke-miterlimit="8" fill="#B3BEB5" fill-rule="evenodd"/><path d="M898.5 358.5C898.5 353.53 902.529 349.5 907.5 349.5 912.471 349.5 916.5 353.53 916.5 358.5 916.5 363.471 912.471 367.5 907.5 367.5 902.529 367.5 898.5 363.471 898.5 358.5Z" stroke="#676D5F" stroke-width="1.33333" stroke-miterlimit="8" fill="#B3BEB5" fill-rule="evenodd"/><path d="M887.5 446.5C887.5 441.53 891.529 437.5 896.5 437.5 901.471 437.5 905.5 441.53 905.5 446.5 905.5 451.471 901.471 455.5 896.5 455.5 891.529 455.5 887.5 451.471 887.5 446.5Z" stroke="#676D5F" stroke-width="1.33333" stroke-miterlimit="8" fill="#B3BEB5" fill-rule="evenodd"/><path d="M879.5 466.5C879.5 461.53 883.529 457.5 888.5 457.5 893.471 457.5 897.5 461.53 897.5 466.5 897.5 471.471 893.471 475.5 888.5 475.5 883.529 475.5 879.5 471.471 879.5 466.5Z" stroke="#676D5F" stroke-width="1.33333" stroke-miterlimit="8" fill="#B3BEB5" fill-rule="evenodd"/><path d="M869.5 488.5C869.5 483.53 873.529 479.5 878.5 479.5 883.471 479.5 887.5 483.53 887.5 488.5 887.5 493.471 883.471 497.5 878.5 497.5 873.529 497.5 869.5 493.471 869.5 488.5Z" stroke="#676D5F" stroke-width="1.33333" stroke-miterlimit="8" fill="#B3BEB5" fill-rule="evenodd"/><path d="M822.5 409.5 892.5 422.5" stroke="#B3BEB5" stroke-width="1.33333" stroke-miterlimit="8" fill="none" fill-rule="evenodd"/><path d="M821.5 407.5C834.01 402.29 846.519 397.079 858.852 395.82 871.186 394.56 883.343 397.251 895.5 399.942" stroke="#B3BEB5" stroke-width="1.33333" stroke-miterlimit="8" fill="none" fill-rule="evenodd"/><path d="M823.5 409.5C825.872 389.037 828.244 368.573 840.577 359.981 852.91 351.389 875.205 354.667 897.5 357.946" stroke="#B3BEB5" stroke-width="1.33333" stroke-miterlimit="8" fill="none" fill-rule="evenodd"/><path d="M822.5 408.5C829.128 392.486 835.755 376.473 848.089 371.416 860.422 366.359 878.461 372.259 896.5 378.158" stroke="#B3BEB5" stroke-width="1.33333" stroke-miterlimit="8" fill="none" fill-rule="evenodd"/><path d="M821.5 409.5C828.692 417.399 835.885 425.299 846.885 430.632 857.885 435.966 872.692 438.733 887.5 441.5" stroke="#B3BEB5" stroke-width="1.33333" stroke-miterlimit="8" fill="none" fill-rule="evenodd"/><path d="M822.252 412.5C821.104 426.558 819.957 440.615 829.498 449.115 839.04 457.615 859.27 460.558 879.5 463.5" stroke="#B3BEB5" stroke-width="1.33333" stroke-miterlimit="8" fill="none" fill-rule="evenodd"/><path d="M821.575 411.5C817.934 432.741 814.293 453.982 822.28 466.315 830.268 478.648 849.884 482.074 869.5 485.5" stroke="#B3BEB5" stroke-width="1.33333" stroke-miterlimit="8" fill="none" fill-rule="evenodd"/><path d="M551.603 294.125C538.035 274.037 524.468 253.949 507.267 238.907 490.067 223.865 469.232 213.87 448.397 203.875" stroke="#BFC4CC" stroke-width="1.33333" stroke-miterlimit="8" fill="none" fill-rule="evenodd"/><path d="M553.33 296.059C533.946 279.248 514.562 262.437 494.83 249.395 475.098 236.353 455.017 227.08 434.937 217.808" stroke="#BFC4CC" stroke-width="1.33333" stroke-miterlimit="8" fill="none" fill-rule="evenodd"/><path d="M551.937 295.528C524.658 280.78 497.378 266.033 475.908 256.066 454.437 246.099 438.776 240.913 423.114 235.727" stroke="#BFC4CC" stroke-width="1.33333" stroke-miterlimit="8" fill="none" fill-rule="evenodd"/><path d="M554.465 296.575 451.985 267.321C428.199 260.25 419.972 257.198 411.746 254.146" stroke="#BFC4CC" stroke-width="1.33333" stroke-miterlimit="8" fill="none" fill-rule="evenodd"/><path d="M553.987 295.67C518.176 297.302 482.365 298.935 456.713 295.323 431.062 291.711 415.571 282.856 400.08 274" stroke="#BFC4CC" stroke-width="1.33333" stroke-miterlimit="8" fill="none" fill-rule="evenodd"/><path d="M681.631 255.349C701.72 238.382 721.808 221.415 736.243 202.076 750.677 182.738 759.456 161.028 768.236 139.318" stroke="#979795" stroke-width="1.33333" stroke-miterlimit="8" fill="none" fill-rule="evenodd"/><path d="M676.199 253.174C691.393 232.223 706.586 211.273 717.942 190.726 729.298 170.179 736.816 150.036 744.334 129.893" stroke="#979795" stroke-width="1.33333" stroke-miterlimit="8" fill="none" fill-rule="evenodd"/><path d="M677.058 251.591C687.958 223.753 698.858 195.915 705.85 174.263 712.841 152.61 715.925 137.143 719.008 121.676" stroke="#979795" stroke-width="1.33333" stroke-miterlimit="8" fill="none" fill-rule="evenodd"/><path d="M674.35 253.18 690.682 154.553C694.743 131.615 696.73 123.584 698.717 115.554" stroke="#979795" stroke-width="1.33333" stroke-miterlimit="8" fill="none" fill-rule="evenodd"/><path d="M750.676 232.973C757.171 234.588 763.666 236.204 775.422 229.127 787.178 222.051 804.195 206.283 821.212 190.514" stroke="#DFDFDF" stroke-width="1.33333" stroke-miterlimit="8" fill="none" fill-rule="evenodd"/><path d="M750.224 233.127C745.545 230.386 740.867 227.644 747.136 215.25 753.405 202.856 770.621 180.809 787.837 158.761" stroke="#DFDFDF" stroke-width="1.33333" stroke-miterlimit="8" fill="none" fill-rule="evenodd"/><path d="M0 0 55 62" stroke="#D9D9D9" stroke-width="1.33333" stroke-miterlimit="8" fill="none" fill-rule="evenodd" transform="matrix(1 0 0 -1 750.5 234.5)"/><path d="M579.5 209C579.5 202.096 584.873 196.5 591.5 196.5 598.128 196.5 603.5 202.096 603.5 209 603.5 215.904 598.128 221.5 591.5 221.5 584.873 221.5 579.5 215.904 579.5 209Z" stroke="#82644C" stroke-miterlimit="8" fill="#B28F76" fill-rule="evenodd"/><path d="M554.5 449C554.5 442.096 560.096 436.5 567 436.5 573.904 436.5 579.5 442.096 579.5 449 579.5 455.904 573.904 461.5 567 461.5 560.096 461.5 554.5 455.904 554.5 449Z" stroke="#677C8B" stroke-miterlimit="8" fill="#93A3AF" fill-rule="evenodd"/><path d="M662.5 264C662.5 257.096 667.873 251.5 674.5 251.5 681.128 251.5 686.5 257.096 686.5 264 686.5 270.904 681.128 276.5 674.5 276.5 667.873 276.5 662.5 270.904 662.5 264Z" stroke="#666664" stroke-miterlimit="8" fill="#848482" fill-rule="evenodd"/><path d="M773.5 308.5C773.5 301.32 779.544 295.5 787 295.5 794.456 295.5 800.5 301.32 800.5 308.5 800.5 315.68 794.456 321.5 787 321.5 779.544 321.5 773.5 315.68 773.5 308.5Z" stroke="#7D9579" stroke-miterlimit="8" fill="#B6C4B4" fill-rule="evenodd"/><text font-family="Times New Roman,Times New Roman_MSFontService,sans-serif" font-weight="400" font-size="24" transform="translate(723.467 557)">transport</text><text font-family="Times New Roman,Times New Roman_MSFontService,sans-serif" font-weight="400" font-size="24" transform="translate(821.067 404)">Marine</text><text font-family="Times New Roman,Times New Roman_MSFontService,sans-serif" font-weight="400" font-size="24" transform="translate(821.067 433)">Animal</text><text font-family="Times New Roman,Times New Roman_MSFontService,sans-serif" font-weight="400" font-size="24" transform="translate(530.133 545)">tableware</text><text font-family="Times New Roman,Times New Roman_MSFontService,sans-serif" font-weight="400" font-size="24" transform="translate(749.8 210)">clothes</text><text font-family="Times New Roman,Times New Roman_MSFontService,sans-serif" font-weight="400" font-size="24" transform="translate(434.2 275)">furniture</text><text font-family="Times New Roman,Times New Roman_MSFontService,sans-serif" font-weight="400" font-size="24" transform="translate(436.4 509)">electronics</text><path d="M469.701 389.508 390.089 383.266" stroke="#D9D9D9" stroke-width="1.33333" stroke-miterlimit="8" fill="none" fill-rule="evenodd"/><path d="M468.546 388.842C468.151 364.304 467.756 339.767 456.259 324.791 444.762 309.815 422.164 304.4 399.566 298.986" stroke="#D9D9D9" stroke-width="1.33333" stroke-miterlimit="8" fill="none" fill-rule="evenodd"/><path d="M467.032 387.198C469.181 411.328 471.33 435.458 462.934 451.921 454.538 468.384 435.597 477.181 416.656 485.977" stroke="#D9D9D9" stroke-width="1.33333" stroke-miterlimit="8" fill="none" fill-rule="evenodd"/><path d="M468.641 388.127C466.091 411.292 463.541 434.458 453.163 447.481 442.785 460.503 424.58 463.382 406.374 466.261" stroke="#D9D9D9" stroke-width="1.33333" stroke-miterlimit="8" fill="none" fill-rule="evenodd"/><path d="M468.452 388.787C462.482 405.386 456.512 421.984 445.308 431.604 434.104 441.225 417.666 443.866 401.227 446.508" stroke="#D9D9D9" stroke-width="1.33333" stroke-miterlimit="8" fill="none" fill-rule="evenodd"/><path d="M469.611 390.997C461.228 401.296 452.844 411.595 440.552 417.328 428.261 423.062 412.062 424.23 395.864 425.398" stroke="#D9D9D9" stroke-width="1.33333" stroke-miterlimit="8" fill="none" fill-rule="evenodd"/><path d="M470.612 389.264C462.108 395.809 453.604 402.354 440.358 405.342 427.111 408.33 409.122 407.762 391.132 407.193" stroke="#D9D9D9" stroke-width="1.33333" stroke-miterlimit="8" fill="none" fill-rule="evenodd"/><path d="M469.322 388.831C463.389 382.083 457.456 375.335 443.864 370.81 430.272 366.286 409.022 363.984 387.771 361.682" stroke="#D9D9D9" stroke-width="1.33333" stroke-miterlimit="8" fill="none" fill-rule="evenodd"/><path d="M469.79 388.02C464.708 373.489 459.627 358.958 446.625 350.81 433.623 342.663 412.702 340.9 391.781 339.137" stroke="#D9D9D9" stroke-width="1.33333" stroke-miterlimit="8" fill="none" fill-rule="evenodd"/><path d="M469.213 387.687C464.701 367.169 460.189 346.65 447.879 335.305 435.569 323.96 415.46 321.789 395.352 319.618" stroke="#D9D9D9" stroke-width="1.33333" stroke-miterlimit="8" fill="none" fill-rule="evenodd"/><text font-family="Times New Roman,Times New Roman_MSFontService,sans-serif" font-weight="400" font-size="24" transform="translate(405.733 379)">daily</text><text font-family="Times New Roman,Times New Roman_MSFontService,sans-serif" font-weight="400" font-size="24" transform="translate(405.733 408)">staff</text><path d="M799.995 305.919 878.003 262.43" stroke="#B6C4B4" stroke-width="1.33333" stroke-miterlimit="8" fill="none" fill-rule="evenodd"/><path d="M798.769 304.155C808.53 290.814 818.292 277.472 830.127 267.362 841.963 257.252 855.872 250.374 869.782 243.496" stroke="#B6C4B4" stroke-width="1.33333" stroke-miterlimit="8" fill="none" fill-rule="evenodd"/><path d="M800.713 305.398C791.282 287.388 781.851 269.379 789.321 253.513 796.792 237.646 821.163 223.922 845.535 210.199" stroke="#B6C4B4" stroke-width="1.33333" stroke-miterlimit="8" fill="none" fill-rule="evenodd"/><path d="M799.604 305.38C797.171 287.574 794.738 269.768 804.592 256.428 814.446 243.088 836.586 234.213 858.727 225.338" stroke="#B6C4B4" stroke-width="1.33333" stroke-miterlimit="8" fill="none" fill-rule="evenodd"/><path d="M799.945 305.773C812.186 307.662 824.427 309.551 838.769 306.411 853.111 303.27 869.553 295.102 885.996 286.933" stroke="#B6C4B4" stroke-width="1.33333" stroke-miterlimit="8" fill="none" fill-rule="evenodd"/><path d="M802.622 307.283C809.912 319.705 817.202 332.127 831.742 332.277 846.281 332.427 868.072 320.304 889.862 308.181" stroke="#B6C4B4" stroke-width="1.33333" stroke-miterlimit="8" fill="none" fill-rule="evenodd"/><path d="M801.348 305.687C810.216 326.232 819.085 346.777 835.234 350.715 851.383 354.652 874.812 341.983 898.241 329.314" stroke="#B6C4B4" stroke-width="1.33333" stroke-miterlimit="8" fill="none" fill-rule="evenodd"/><text font-family="Times New Roman,Times New Roman_MSFontService,sans-serif" font-weight="400" font-size="24" transform="translate(783.933 286)">Terrestrial</text><text font-family="Times New Roman,Times New Roman_MSFontService,sans-serif" font-weight="400" font-size="24" transform="translate(800.607 315)">Animal</text><path d="M52.4667 0C31.4141 12.6111 10.3615 25.2223 3.14024 42.6667-4.081 60.1111 2.5292 82.3889 9.1394 104.667" stroke="#D8C7BA" stroke-width="1.33333" stroke-miterlimit="8" fill="none" fill-rule="evenodd" transform="matrix(0.5 -0.866025 -0.866025 -0.5 554.239 243.767)"/><path d="M0 0C13.688 1.72505 27.376 3.45019 38.976 9.80571 50.576 16.1612 60.0879 27.1472 69.6 38.1333" stroke="#D8C7BA" stroke-width="1.33333" stroke-miterlimit="8" fill="none" fill-rule="evenodd" transform="matrix(0.5 -0.866025 -0.866025 -0.5 582.871 198.175)"/><path d="M0 0C10.2667 3.68188 20.5333 7.36376 30.0667 16.3416 39.6 25.3194 48.4 39.593 57.2 53.8667" stroke="#D8C7BA" stroke-width="1.33333" stroke-miterlimit="8" fill="none" fill-rule="evenodd" transform="matrix(0.5 -0.866025 -0.866025 -0.5 581.871 199.907)"/><path d="M4.3108 0C1.2626 8.07388-1.7856 16.1479 1.2626 29.459 4.3108 42.7702 13.4554 61.3184 22.6 79.8667" stroke="#D8C7BA" stroke-width="1.33333" stroke-miterlimit="8" fill="none" fill-rule="evenodd" transform="matrix(0.5 -0.866025 -0.866025 -0.5 578.817 202.531)"/><path d="M20.6667 0C10.6231 11.6667 0.579469 23.3333 0.0245378 38.6667-0.530393 54 8.40345 73 17.3373 92" stroke="#D8C7BA" stroke-width="1.33333" stroke-miterlimit="8" fill="none" fill-rule="evenodd" transform="matrix(0.5 -0.866025 -0.866025 -0.5 570.05 217.716)"/><path d="M35.6 0C20.0864 14.1666 4.57282 28.3333 0.902943 44.6667-2.76694 61 5.40684 79.5 13.5807 98" stroke="#D8C7BA" stroke-width="1.33333" stroke-miterlimit="8" fill="none" fill-rule="evenodd" transform="matrix(0.5 -0.866025 -0.866025 -0.5 562.006 230.315)"/><path d="M0 0 37.8667 68.8" stroke="#D8C7BA" stroke-width="1.33333" stroke-miterlimit="8" fill="none" fill-rule="evenodd" transform="matrix(0.5 -0.866025 -0.866025 -0.5 581.627 198.996)"/><path d="M583.5 196.5C592.267 191.833 618.434 184.5 627.669 167.5 636.904 150.5 630.145 122.1 629.676 111.5" stroke="#D9C9BC" stroke-width="1.33333" stroke-miterlimit="8" fill="none" fill-rule="evenodd"/><path d="M619.5 102.5C619.5 97.5295 623.753 93.5001 629 93.5001 634.247 93.5001 638.5 97.5295 638.5 102.5 638.5 107.471 634.247 111.5 629 111.5 623.753 111.5 619.5 107.471 619.5 102.5Z" stroke="#7E5F46" stroke-width="1.33333" stroke-miterlimit="8" fill="#B28F76" fill-rule="evenodd" fill-opacity="0.501961"/><path d="M655.5 365.5C661.081 366.833 673.956 370.567 686.756 372.167 699.556 373.767 713.547 373.367 719.5 373.5" stroke="#797979" stroke-width="9.33333" stroke-miterlimit="8" fill="none" fill-rule="evenodd"/><path d="M570 308C574.709 315.667 585.572 337.133 596.372 346.333 607.172 355.533 618.977 353.233 624 354" stroke="#797979" stroke-width="8" stroke-miterlimit="8" fill="none" fill-rule="evenodd"/><path d="M640 379C643.447 390.549 654.033 415.287 656.987 444.873 659.942 474.459 655.572 511.886 654.771 527" stroke="#797979" stroke-width="4" stroke-miterlimit="8" fill="none" fill-rule="evenodd"/><path d="M631.634 375.5C631.803 380.972 633.495 393.439 631.634 406.253 629.774 419.067 624.361 433.474 622.5 439.5" stroke="#797979" stroke-width="5" stroke-miterlimit="8" fill="none" fill-rule="evenodd"/><path d="M539.5 304.5C539.5 291.798 549.574 281.5 562 281.5 574.426 281.5 584.5 291.798 584.5 304.5 584.5 317.203 574.426 327.5 562 327.5 549.574 327.5 539.5 317.203 539.5 304.5Z" stroke="#7D8797" stroke-miterlimit="8" fill="#BFC4CC" fill-rule="evenodd"/><path d="M652.5 372.5C664.18 384.405 697.627 414.551 712.227 436.551 726.827 458.551 724.04 474.563 725.5 482.5" stroke="#797979" stroke-width="4.66667" stroke-miterlimit="8" fill="none" fill-rule="evenodd"/><path d="M655.5 353.5C668.564 344.609 705.812 324.278 722.212 303.878 738.612 283.478 735.763 261.011 737.5 251.5" stroke="#797979" stroke-width="5" stroke-miterlimit="8" fill="none" fill-rule="evenodd"/><path d="M642 345C647.373 336.996 663.19 316.1 669.244 302.5 675.299 288.9 672.196 281.25 672.271 277" stroke="#797979" stroke-width="4" stroke-miterlimit="8" fill="none" fill-rule="evenodd"/><path d="M631.5 344.5C629.85 325.207 627.54 270.315 620.94 245.315 614.34 220.315 602.79 222.693 598.5 219.5" stroke="#797979" stroke-width="5" stroke-miterlimit="8" fill="none" fill-rule="evenodd"/><path d="M623.5 365.5C606.511 366.767 560.661 368.7 534.461 373.5 508.261 378.3 499.118 386.433 492.5 389.5" stroke="#797979" stroke-width="7.33333" stroke-miterlimit="8" fill="none" fill-rule="evenodd"/><path d="M624.5 370.5C617.289 376.413 597.46 390.3 587.06 403.5 576.66 416.7 574.649 430.588 572.5 436.5" stroke="#797979" stroke-width="5" stroke-miterlimit="8" fill="none" fill-rule="evenodd"/><text font-family="Times New Roman,Times New Roman_MSFontService,sans-serif" font-weight="400" font-size="24" transform="translate(525.133 172)">sports</text><path d="M468.5 391.5C468.5 381.007 477.007 372.5 487.5 372.5 497.993 372.5 506.5 381.007 506.5 391.5 506.5 401.993 497.993 410.5 487.5 410.5 477.007 410.5 468.5 401.993 468.5 391.5Z" stroke="#BCABA2" stroke-miterlimit="8" fill="#F5F5F5" fill-rule="evenodd"/><path d="M641.606 533.417C640.842 526.148 646.115 519.636 653.383 518.872 660.652 518.109 667.164 523.382 667.928 530.65 668.691 537.919 663.418 544.43 656.15 545.194 648.881 545.958 642.37 540.685 641.606 533.417Z" stroke="#A6926E" stroke-miterlimit="8" fill="#CEC3AF" fill-rule="evenodd"/><g clip-path="url(#clip1)"><g filter="url(#fx0)" transform="translate(614 339)"><g><path d="M7.50006 26.3334C7.50006 16.1161 15.7828 7.83337 26.0001 7.83337 36.2173 7.83337 44.5001 16.1161 44.5001 26.3334 44.5001 36.5506 36.2173 44.8334 26.0001 44.8334 15.7828 44.8334 7.50006 36.5506 7.50006 26.3334Z" stroke="#000000" stroke-miterlimit="8" fill="#2D3539" fill-rule="evenodd"/></g></g></g><path d="M621.5 360C621.5 349.783 629.783 341.5 640 341.5 650.217 341.5 658.5 349.783 658.5 360 658.5 370.217 650.217 378.5 640 378.5 629.783 378.5 621.5 370.217 621.5 360Z" stroke="#000000" stroke-width="1.33333" stroke-miterlimit="8" fill="#2D3539" fill-rule="evenodd"/><path d="M732.5 243C732.5 236.096 738.096 230.5 745 230.5 751.904 230.5 757.5 236.096 757.5 243 757.5 249.904 751.904 255.5 745 255.5 738.096 255.5 732.5 249.904 732.5 243Z" stroke="#6F6F6F" stroke-miterlimit="8" fill="#C0C0C0" fill-rule="evenodd"/><text font-family="Times New Roman,Times New Roman_MSFontService,sans-serif" font-weight="400" font-size="24" transform="translate(628.4 584)">food</text><path d="M717.5 371C717.5 356.365 729.365 344.5 744 344.5 758.636 344.5 770.5 356.365 770.5 371 770.5 385.636 758.636 397.5 744 397.5 729.365 397.5 717.5 385.636 717.5 371Z" stroke="#586050" stroke-width="0.333333" stroke-miterlimit="8" fill="#98A28F" fill-rule="evenodd"/><path d="M795.5 409C795.5 401.544 801.32 395.5 808.5 395.5 815.68 395.5 821.5 401.544 821.5 409 821.5 416.456 815.68 422.5 808.5 422.5 801.32 422.5 795.5 416.456 795.5 409Z" stroke="#545B4C" stroke-miterlimit="8" fill="#A2AFA4" fill-rule="evenodd"/><path d="M769.292 363C768.484 357.911 764.944 344.652 766.31 335.679 767.677 326.705 774.012 321.013 776 318" stroke="#98A28F" stroke-width="3.66667" stroke-miterlimit="8" fill="none" fill-rule="evenodd"/><path d="M768 363C769.647 369.632 772.255 388.591 777.882 396.765 783.51 404.938 792.569 403.196 796 404" stroke="#98A28F" stroke-width="3.66667" stroke-miterlimit="8" fill="none" fill-rule="evenodd"/><rect x="539" y="277" width="215" height="67" fill="url(#fill2)"/><text font-family="Times New Roman,Times New Roman_MSFontService,sans-serif" font-weight="700" font-size="48" transform="translate(568.267 328)">CR</text><text font-family="Times New Roman,Times New Roman_MSFontService,sans-serif" font-weight="700" font-size="48" transform="translate(637.6 328)">-</text><text font-family="Times New Roman,Times New Roman_MSFontService,sans-serif" font-weight="700" font-size="48" transform="translate(653.6 328)">360</text><path d="M719.5 494.5C719.5 484.007 728.007 475.5 738.5 475.5 748.993 475.5 757.5 484.007 757.5 494.5 757.5 504.993 748.993 513.5 738.5 513.5 728.007 513.5 719.5 504.993 719.5 494.5Z" stroke="#53606C" stroke-miterlimit="8" fill="#798898" fill-rule="evenodd"/><text font-family="Times New Roman,Times New Roman_MSFontService,sans-serif" font-weight="400" font-size="24" transform="translate(636.933 179)">instruments</text><path d="M642.5 102.5C642.5 97.5295 646.529 93.5001 651.5 93.5001 656.471 93.5001 660.5 97.5295 660.5 102.5 660.5 107.471 656.471 111.5 651.5 111.5 646.529 111.5 642.5 107.471 642.5 102.5Z" stroke="#666664" stroke-width="1.33333" stroke-miterlimit="8" fill="#979795" fill-rule="evenodd"/><path d="M671.5 252.5C666.074 236.11 649.099 193.605 644.786 165.178 640.473 136.751 648.265 119.681 649.795 110.5" stroke="#9A9A98" stroke-width="1.33333" stroke-miterlimit="8" fill="none" fill-rule="evenodd"/><path d="M675.5 251.5C673.604 231.205 667.239 174.724 666.562 146.551 665.885 118.378 670.963 115.641 672.25 110.5" stroke="#9A9A98" stroke-width="1.33333" stroke-miterlimit="8" fill="none" fill-rule="evenodd"/><text font-family="Times New Roman,Times New Roman_MSFontService,sans-serif" font-weight="400" font-size="24" transform="matrix(-1.83697e-16 -1 1 -1.83697e-16 657.1 85)">microphone</text></g></svg>